Coordinates
version=1
nRows=29
nColumns=22
inDegrees=yes

Units are S.I. units (second, meters, Newtons, ...)
If the header above contains a line with 'inDegrees', this indicates whether rotational values are in degrees (yes) or radians (no).

endheader
time	pelvis_tilt	pelvis_list	pelvis_rotation	pelvis_tx	pelvis_ty	pelvis_tz	hip_flexion_r	hip_adduction_r	hip_rotation_r	knee_angle_r	ankle_angle_r	subtalar_angle_r	hip_flexion_l	hip_adduction_l	hip_rotation_l	knee_angle_l	ankle_angle_l	subtalar_angle_l	lumbar_extension	lumbar_bending	lumbar_rotation
      3.30000000	     -0.72627763	      2.36902791	     24.53164610	     -0.10876647	      0.89402988	     -0.44637963	     -5.57914671	      5.45156032	     17.92187310	    -44.43382631	     -6.90074432	     -0.82276732	     21.63100570	     -5.56840793	     -3.50169998	    -27.88567282	      2.55799250	      6.39237368	     -6.21143461	     -3.92190587	      5.25442701
      3.31000000	     -0.79331711	      2.71469547	     23.35532814	     -0.10115253	      0.89503224	     -0.45111148	     -3.90071373	      4.95273648	     17.02588136	    -47.70345837	     -9.12537100	     -1.06695303	     20.92420115	     -5.47490619	     -4.71629960	    -28.36238838	      3.22534060	      6.04316812	     -6.26640186	     -4.44042483	      4.84676296
      3.32000000	     -0.87702055	      3.10776062	     22.14874514	     -0.09384644	      0.89606890	     -0.45557797	     -2.09147287	      4.38176230	     16.19442978	    -51.00307737	    -11.10646229	     -1.26585481	     20.10852849	     -5.30562409	     -6.01365672	    -28.58756943	      3.79406820	      5.83973109	     -6.34503225	     -4.99776948	      4.37658249
      3.33000000	     -0.96931523	      3.49574991	     20.95147010	     -0.08687176	      0.89709169	     -0.45985477	     -0.17155326	      3.79549973	     15.40463974	    -54.25131566	    -12.79120497	     -1.36707587	     19.22109537	     -5.08513163	     -7.28678916	    -28.57720159	      4.34336877	      5.67659167	     -6.42901992	     -5.52389904	      3.87326749
      3.34000000	     -1.06806028	      3.86008816	     19.78176741	     -0.08016210	      0.89808044	     -0.46394373	      1.80834973	      3.24938365	     14.71809044	    -57.36258648	    -14.09435890	     -1.30147071	     18.29928305	     -4.83506582	     -8.53208364	    -28.39127183	      4.88808430	      5.51750443	     -6.50859668	     -6.00245786	      3.25620026
      3.35000000	     -1.13829787	      4.16176426	     18.65235114	     -0.07367685	      0.89906288	     -0.46784952	      3.79259013	      2.80681668	     14.10863196	    -60.26885279	    -14.99411089	     -0.92304670	     17.34843280	     -4.60149069	     -9.69183724	    -28.07528822	      5.43821058	      5.34599723	     -6.60299011	     -6.38310920	      2.58222390
      3.36000000	     -1.12312647	      4.39721947	     17.54322393	     -0.06730408	      0.90015312	     -0.47154009	      5.68325052	      2.50603943	     13.58243508	    -62.90394515	    -15.55953958	     -0.29149983	     16.31748063	     -4.42581326	    -10.81873437	    -27.66066120	      5.88075139	      5.26673716	     -6.76756313	     -6.64920238	      1.87135271
      3.37000000	     -1.04359060	      4.52431720	     16.48910616	     -0.06099064	      0.90129996	     -0.47504721	      7.48527375	      2.38747174	     13.07779369	    -65.23717765	    -15.79054176	      0.56087390	     15.26445294	     -4.33496576	    -11.84708137	    -27.20031206	      6.33426086	      5.18473616	     -6.96145328	     -6.77207317	      1.11929593
      3.38000000	     -0.88351538	      4.53904736	     15.49831262	     -0.05473055	      0.90252394	     -0.47834701	      9.16383763	      2.47152938	     12.57100797	    -67.25334536	    -15.78212953	      1.48661007	     14.20585319	     -4.34853451	    -12.76720754	    -26.76816401	      6.78208524	      5.11102179	     -7.21280853	     -6.74970669	      0.32560119
      3.39000000	     -0.65730012	      4.42827584	     14.59576212	     -0.04844334	      0.90384236	     -0.48147898	     10.70952560	      2.74873829	     11.99048151	    -68.91776072	    -15.62427089	      2.31422157	     13.14445102	     -4.47767334	    -13.57267860	    -26.35022529	      7.22913576	      5.04964963	     -7.49390685	     -6.58011155	     -0.50284290
      3.40000000	     -0.39073976	      4.22212057	     13.77403212	     -0.04213860	      0.90522761	     -0.48444783	     12.13904040	      3.16301524	     11.31800479	    -70.24048419	    -15.35873949	      2.80379384	     12.10201674	     -4.69158459	    -14.27307475	    -25.96905361	      7.67019594	      5.01893541	     -7.79594256	     -6.30757955	     -1.36565264
      3.41000000	     -0.10258038	      3.94174420	     13.05995802	     -0.03581809	      0.90665500	     -0.48733588	     13.47064249	      3.64900897	     10.50085606	    -71.23594170	    -15.07551494	      3.21333444	     11.10426355	     -4.97492527	    -14.91520896	    -25.65013714	      8.02177386	      4.98834821	     -8.10336489	     -5.95443453	     -2.23767323
      3.42000000	      0.16855413	      3.65253123	     12.41478711	     -0.02947839	      0.90806207	     -0.49015654	     14.73835326	      4.11411238	      9.58427562	    -71.94325487	    -14.68500505	      3.35414433	     10.13417287	     -5.23844765	    -15.47560347	    -25.33064567	      8.38401909	      4.98191998	     -8.38900460	     -5.60405240	     -3.09163729
      3.43000000	      0.44631952	      3.33090309	     11.83271547	     -0.02311351	      0.90946419	     -0.49288626	     15.92021651	      4.58955674	      8.58714229	    -72.36180122	    -14.23821205	      3.45621257	      9.18183603	     -5.52802821	    -15.98948391	    -25.03270650	      8.70443844	      4.97454334	     -8.67452496	     -5.22447890	     -3.92328322
      3.44000000	      0.71056629	      3.04050413	     11.28940418	     -0.01672223	      0.91082737	     -0.49558137	     17.03554932	      4.97373836	      7.52483856	    -72.52699163	    -13.69438493	      3.51245815	      8.22475276	     -5.76353172	    -16.47869477	    -24.70857308	      8.98663543	      4.97086004	     -8.95034371	     -4.88572684	     -4.70037333
      3.45000000	      1.00091705	      2.77128373	     10.76188748	     -0.01027474	      0.91220422	     -0.49823173	     18.03212559	      5.29228580	      6.43443132	    -72.42851602	    -13.04603698	      3.51520247	      7.19915001	     -5.95683627	    -16.93491646	    -24.31766994	      9.23689675	      4.96736692	     -9.25438093	     -4.56593066	     -5.41464022
      3.46000000	      1.22364400	      2.58113628	     10.24128844	     -0.00387035	      0.91337223	     -0.50086609	     19.03530301	      5.43729164	      5.31226389	    -72.14288714	    -12.20635455	      3.53239260	      6.23553030	     -6.04585998	    -17.44872801	    -23.94332149	      9.47783603	      4.96624881	     -9.50155677	     -4.34964636	     -6.03082564
      3.47000000	      1.44895301	      2.41158765	      9.72034419	      0.00254524	      0.91445562	     -0.50343156	     19.95234603	      5.51092774	      4.18236753	    -71.62090806	    -11.23397205	      3.51433843	      5.24066365	     -6.09428402	    -17.95423648	    -23.52121243	      9.70891376	      4.96630943	     -9.75481073	     -4.15943004	     -6.56806497
      3.48000000	      1.73354737	      2.27344827	      9.17866767	      0.00899289	      0.91554288	     -0.50590283	     20.71433446	      5.51876431	      3.06410100	    -70.85851223	    -10.19656176	      3.34666207	      4.13029034	     -6.09540910	    -18.47775110	    -23.01150486	      9.91343541	      4.98569543	    -10.07962082	     -3.99793382	     -7.02999152
      3.49000000	      1.91148333	      2.15041747	      8.64217396	      0.01535703	      0.91629807	     -0.50829266	     21.53646383	      5.43878745	      1.93164482	    -69.92170812	     -9.04016757	      3.15222362	      3.16597539	     -6.06566343	    -19.05119725	    -22.56414970	     10.15287588	      5.03129396	    -10.29651757	     -3.87687048	     -7.40681903
      3.50000000	      2.05784990	      2.03202596	      8.10544242	      0.02168105	      0.91687207	     -0.51059290	     22.32048872	      5.30867410	      0.79557685	    -68.78360889	     -7.84612335	      2.84806354	      2.24621503	     -6.02145529	    -19.65762620	    -22.13284672	     10.40783294	      5.09805355	    -10.48831050	     -3.76605209	     -7.71769925
      3.51000000	      2.16058006	      1.90255791	      7.56725049	      0.02800030	      0.91725940	     -0.51275717	     23.07787518	      5.16403138	     -0.32803446	    -67.44596177	     -6.65373303	      2.46013979	      1.37347369	     -5.97515101	    -20.26192255	    -21.69515508	     10.67347951	      5.16736481	    -10.63225704	     -3.65465863	     -7.95985817
      3.52000000	      2.22651422	      1.76627247	      7.03066422	      0.03429549	      0.91747237	     -0.51480513	     23.80157202	      5.00286984	     -1.44403379	    -65.91584691	     -5.50229037	      1.99548127	      0.55336916	     -5.92967921	    -20.87997804	    -21.27920713	     10.94081495	      5.22628082	    -10.74395580	     -3.53853620	     -8.15370600
      3.53000000	      2.25374845	      1.62253544	      6.50388681	      0.04057100	      0.91752248	     -0.51672266	     24.48968961	      4.83522639	     -2.55300583	    -64.18929531	     -4.42744570	      1.50435418	     -0.21340437	     -5.88682237	    -21.49425827	    -20.88119675	     11.19640405	      5.25596557	    -10.82206369	     -3.41977639	     -8.30600469
      3.54000000	      2.24514596	      1.47208698	      5.98651416	      0.04684253	      0.91742608	     -0.51850681	     25.12907562	      4.67038299	     -3.65144389	    -62.26008407	     -3.43252397	      1.02159466	     -0.93086761	     -5.84590135	    -22.09127289	    -20.50010259	     11.43423158	      5.24816304	    -10.86865918	     -3.29533680	     -8.43167654
      3.55000000	      2.20942583	      1.31736249	      5.48135327	      0.05312749	      0.91719887	     -0.52016720	     25.70268344	      4.51111643	     -4.74561485	    -60.12559129	     -2.53842893	      0.55224691	     -1.60973674	     -5.80570884	    -22.66418071	    -20.13483865	     11.66278723	      5.20712421	    -10.89177184	     -3.16432847	     -8.54239400
      3.56000000	      2.14897430	      1.16265997	      4.99313907	      0.05944167	      0.91685902	     -0.52169673	     26.19762214	      4.36152788	     -5.83673598	    -57.77759962	     -1.75026355	      0.06527961	     -2.25531434	     -5.76279289	    -23.20723290	    -19.77666793	     11.86714459	      5.14610170	    -10.89285668	     -3.03124453	     -8.65190774
      3.57000000	      2.07484627	      1.01138591	      4.53523687	      0.06579766	      0.91640188	     -0.52311993	     26.59906048	      4.20772166	     -6.96316153	    -55.22694571	     -1.04614520	     -0.38705681	     -2.86410543	     -5.72543663	    -23.73092032	    -19.45844409	     12.08891912	      5.08476998	    -10.88666315	     -2.89717274	     -8.75709848
      3.58000000	      1.99711694	      0.86890368	      4.09498854	      0.07223778	      0.91589574	     -0.52440608	     26.87483411	      4.07715269	     -8.08031551	    -52.43862263	     -0.47302459	     -0.93280690	     -3.47799687	     -5.67173380	    -24.19718156	    -19.11540136	     12.26942809	      5.03833055	    -10.87290682	     -2.76941569	     -8.88432501
